<?xml version="1.0" encoding="UTF-8" standalone="no"?>
<svg
   xmlns:dc="http://purl.org/dc/elements/1.1/"
   xmlns:cc="http://creativecommons.org/ns#"
   xmlns:rdf="http://www.w3.org/1999/02/22-rdf-syntax-ns#"
   xmlns:svg="http://www.w3.org/2000/svg"
   xmlns="http://www.w3.org/2000/svg"
   xmlns:sodipodi="http://sodipodi.sourceforge.net/DTD/sodipodi-0.dtd"
   xmlns:inkscape="http://www.inkscape.org/namespaces/inkscape"
   width="5.2056522mm"
   height="5.2056522mm"
   viewBox="0 0 5.2056522 5.2056523"
   version="1.1"
   id="svg8"
   sodipodi:docname="favicon.svg"
   inkscape:version="1.0.2 (e86c870879, 2021-01-15)">
  <defs
     id="defs2" />
  <sodipodi:namedview
     id="base"
     pagecolor="#ffffff"
     bordercolor="#666666"
     borderopacity="1.0"
     inkscape:pageopacity="0.0"
     inkscape:pageshadow="2"
     inkscape:zoom="22.4"
     inkscape:cx="17.083253"
     inkscape:cy="21.332692"
     inkscape:document-units="mm"
     inkscape:current-layer="layer1"
     inkscape:document-rotation="0"
     showgrid="false"
     fit-margin-top="0"
     fit-margin-left="0"
     fit-margin-right="0"
     fit-margin-bottom="0"
     inkscape:window-width="3838"
     inkscape:window-height="2122"
     inkscape:window-x="0"
     inkscape:window-y="37"
     inkscape:window-maximized="1" />
  <metadata
     id="metadata5">
    <rdf:RDF>
      <cc:Work
         rdf:about="">
        <dc:format>image/svg+xml</dc:format>
        <dc:type
           rdf:resource="http://purl.org/dc/dcmitype/StillImage" />
        <dc:title></dc:title>
      </cc:Work>
    </rdf:RDF>
  </metadata>
  <g
     inkscape:label="Layer 1"
     inkscape:groupmode="layer"
     id="layer1"
     transform="translate(-32.629387,-91.484009)">
    <g
       aria-label="R"
       id="text835"
       style="font-style:normal;font-variant:normal;font-weight:normal;font-stretch:normal;font-size:5.64444px;line-height:1.25;font-family:Alfphabet;-inkscape-font-specification:Alfphabet;text-align:center;letter-spacing:0px;word-spacing:0px;text-anchor:middle;fill:#5494af;fill-opacity:1;stroke:none;stroke-width:0.264583"
       transform="translate(-0.05395048,0.14077791)">
      <path
         d="m 33.268276,91.936641 h 2.810931 q 0.254,0.03387 0.474133,0.1524 0.225778,0.118533 0.383822,0.3048 0.163689,0.180622 0.254,0.406399 0.09596,0.225778 0.09596,0.468489 v 0.05644 0.05644 q 0,0.163689 -0.04516,0.333022 -0.04516,0.163688 -0.129822,0.316088 -0.08467,0.146756 -0.2032,0.270934 -0.112889,0.124177 -0.248355,0.208844 l 0.643466,1.444976 h -0.886177 l -0.536222,-1.219199 h -1.800576 v 1.219199 h -0.8128 z m 0.8128,1.986843 h 1.800576 q 0.124178,0 0.231422,-0.04516 0.112889,-0.04515 0.197555,-0.124177 0.08467,-0.08467 0.129823,-0.191911 0.0508,-0.107245 0.0508,-0.237067 0,-0.118533 -0.0508,-0.225777 -0.0508,-0.112889 -0.135467,-0.197556 -0.08467,-0.08467 -0.197555,-0.135466 -0.107245,-0.0508 -0.225778,-0.0508 h -1.800576 z"
         style="font-style:normal;font-variant:normal;font-weight:normal;font-stretch:normal;font-family:Alfphabet;-inkscape-font-specification:Alfphabet;fill:#5494af;fill-opacity:1;stroke-width:0.264583"
         id="path839" />
    </g>
  </g>
</svg>
