<?xml version="1.0" encoding="UTF-8" standalone="no"?>
<svg
   xmlns:dc="http://purl.org/dc/elements/1.1/"
   xmlns:cc="http://creativecommons.org/ns#"
   xmlns:rdf="http://www.w3.org/1999/02/22-rdf-syntax-ns#"
   xmlns:svg="http://www.w3.org/2000/svg"
   xmlns="http://www.w3.org/2000/svg"
   xmlns:sodipodi="http://sodipodi.sourceforge.net/DTD/sodipodi-0.dtd"
   xmlns:inkscape="http://www.inkscape.org/namespaces/inkscape"
   width="5.2056522mm"
   height="5.2056522mm"
   viewBox="0 0 5.2056522 5.2056523"
   version="1.1"
   id="svg8"
   sodipodi:docname="favicon.svg"
   inkscape:version="1.0.2 (e86c870879, 2021-01-15)">
  <defs
     id="defs2" />
  <sodipodi:namedview
     id="base"
     pagecolor="#ffffff"
     bordercolor="#666666"
     borderopacity="1.0"
     inkscape:pageopacity="0.0"
     inkscape:pageshadow="2"
     inkscape:zoom="64"
     inkscape:cx="12.555662"
     inkscape:cy="8.488602"
     inkscape:document-units="mm"
     inkscape:current-layer="layer1"
     inkscape:document-rotation="0"
     showgrid="false"
     fit-margin-top="0"
     fit-margin-left="0"
     fit-margin-right="0"
     fit-margin-bottom="0"
     inkscape:window-width="3838"
     inkscape:window-height="2122"
     inkscape:window-x="0"
     inkscape:window-y="37"
     inkscape:window-maximized="1" />
  <metadata
     id="metadata5">
    <rdf:RDF>
      <cc:Work
         rdf:about="">
        <dc:format>image/svg+xml</dc:format>
        <dc:type
           rdf:resource="http://purl.org/dc/dcmitype/StillImage" />
        <dc:title></dc:title>
      </cc:Work>
    </rdf:RDF>
  </metadata>
  <g
     inkscape:label="Layer 1"
     inkscape:groupmode="layer"
     id="layer1"
     transform="translate(-32.629387,-91.484009)">
    <path
       d="m 33.404041,93.984575 c -0.682739,1.367048 -0.659981,1.301913 -0.659981,1.424336 -0.0071,0.346079 0.442211,0.627807 0.997428,0.627807 0.555215,0 1.004491,-0.281571 1.004491,-0.620743 0,-0.126507 0.0108,-0.06868 -0.667986,-1.424337 -0.137962,-0.283298 -0.534265,-0.284867 -0.673952,-0.0071 z m -0.227893,1.298775 0.564868,-1.12299 0.566204,1.12299 z m 3.915472,-2.303265 c -0.138274,-0.276627 -0.534263,-0.27757 -0.673558,0 -0.68274,1.367048 -0.667358,1.301914 -0.667358,1.424335 0,0.346237 0.449273,0.620744 1.00449,0.620744 0.555217,0 0.997427,-0.281492 0.997427,-0.620744 -2.37e-4,-0.126346 0.01782,-0.06828 -0.661001,-1.424335 z m -0.90875,1.298774 0.565339,-1.122989 0.565655,1.122989 z m -0.683525,1.631096 V 93.22179 c 0.163465,-0.07154 0.288164,-0.211335 0.343567,-0.382726 l 0.99115,-0.330462 c 0.13161,-0.0439 0.202703,-0.186145 0.158756,-0.31767 -0.04377,-0.131291 -0.18536,-0.202939 -0.31767,-0.158756 l -0.88913,0.296324 c -0.109394,-0.184339 -0.308331,-0.309272 -0.538187,-0.309272 -0.346707,0 -0.620744,0.2811 -0.620744,0.627806 0,0.02324 0.0044,0.04529 0.0068,0.06786 l -0.971697,0.321688 c -0.131837,0.04394 -0.20286,0.185988 -0.158992,0.317042 0.03508,0.105236 0.133023,0.171706 0.238253,0.171706 0.02624,0 0.05311,-0.0041 0.0795,-0.01293 l 1.06468,-0.354994 c 0.03453,0.02511 0.06513,0.04709 0.111433,0.06435 v 2.689367 c 0,0.06906 0.06999,0.127113 0.251184,0.127113 0.187917,0 0.252732,-0.0609 0.251097,-0.128281 z"
       id="path968"
       style="fill:#5494af;fill-opacity:1;stroke-width:0.00799659;stroke-miterlimit:4;stroke-dasharray:none"
       sodipodi:nodetypes="ccsscccccccccsscccccccccccccsscccscccscc" />
  </g>
</svg>
