<?xml version="1.0" encoding="UTF-8" standalone="no"?>
<svg xmlns="http://www.w3.org/2000/svg" xmlns:xlink="http://www.w3.org/1999/xlink" version="1.1" id="Capa_1" x="0px" y="0px" viewBox="0 0 512 512" style="enable-background:new 0 0 425.127 425.127;" xml:space="preserve" width="512px" height="512px">
	<defs>
		<path id="left-pan-motion"
			d="M 0,0 a 181,181 0 0,1 6.167,-46.85 a 181,181 0 0,0 0,93.70 a 181,181 0 0,1 -6.167,-46.85" />
		<path id="right-pan-motion"
			d="M 0,0 a 181,181 0 0,1 -6.167,46.85 a 181,181 0 0,0 0,-93.70 a 181,181 0 0,1 6.167,46.85" />
	</defs>
	<g>
		<path
			id="left-pan"
			d="M 85 207 a 20,50 0 0,0 -20,0 l -40 180 h -25 a 75,60 0 0,0 150,0 h -25 l -40 -180 z m -15 15 l 40 165 h -70 l 40 -165 z "
			style="fill:#5494af" />
		<path
			id="beam"
			d="M 256 63 l -23 60 a 56,56 0 0,0 -33,40 l -152 20 v 24 h 182 a 26,26 0 0,0 52,0 h 182 v -24 l -152 -20 a 56,56 0 0,0 -33,-40 l -23 -60 z M 256 173 l 15 34 a 15,15 0 0,1 -30,0 z "
			style="fill:#5494af" />
		<path
			id="right-pan"
			d="M 447 207 a 20,50 0 0,0 -20,0 l -40 180 h -25 a 75,60 0 0,0 150,0 h -25 l -40 -180 z m -15 15 l 40 165 h -70 l 40 -165 z "
			style="fill:#5494af" />
		<circle
			id="circle3463"
			fill="#5494af"
			r="4.756"
			cy="207"
			cx="256" />
	</g>
	<animateTransform
		xlink:href="#beam"
		repeatCount="indefinite"
		to="0 256 207"
		from="0 256 207"
		values="0 256 207; 15 256 207; 0 256 207; -15 256 207; 0 256 207"
		keyTimes="0; 0.25; 0.5; 0.75; 1"
		keySplines="0 0 .5 1; .5 0 1 1; 0 0 .5 1; .5 0 1 1"
		calcMode="spline"
		type="rotate"
		dur="2s"
		begin="0s"
		attributeName="transform" />
	<animateMotion
		xlink:href="#left-pan"
		repeatCount="indefinite"
		keyTimes="0; 0.25; 0.75; 1"
		keySplines="0 0 .5 1; .5 0 .5 1; .5 0 1 1"
		calcMode="spline"
		dur="2s"
		begin="0s">
		<mpath xlink:href="#left-pan-motion" />
	</animateMotion>
	<animateMotion
		xlink:href="#right-pan"
		repeatCount="indefinite"
		keyTimes="0; 0.25; 0.75; 1"
		keySplines="0 0 .5 1; .5 0 .5 1; .5 0 1 1"
		calcMode="spline"
		dur="2s"
		begin="0s">
		<mpath xlink:href="#right-pan-motion" />
	</animateMotion>
</svg>
